HIERARCHY
ROOT Pelvis
{
	OFFSET 0.000000 0.000000 0.000000
	CHANNELS 6 Xposition Yposition Zposition Xrotation Yrotation Zrotation
	JOINT LeftUpLeg_virtual
	{
		OFFSET 0.000000 0.000000 0.000000
		CHANNELS 3 Xrotation Yrotation Zrotation
		JOINT LeftUpLeg
		{
			OFFSET 18.735201 -5.666702 -4.541200
			CHANNELS 3 Xrotation Yrotation Zrotation
			JOINT LeftLeg
			{
				OFFSET -0.021200 -31.938179 0.493100
				CHANNELS 3 Xrotation Yrotation Zrotation
				JOINT LeftFoot
				{
					OFFSET 0.021200 -31.938179 -4.336299
					CHANNELS 3 Xrotation Yrotation Zrotation
					JOINT LeftToeBase
					{
						OFFSET 0.943001 -26.722000 15.023500
						CHANNELS 3 Xrotation Yrotation Zrotation
						End Site
						{
							OFFSET 0 0 0
						}
					}
				}
			}
		}
	}
	JOINT RightUpLeg_virtual
	{
		OFFSET 0.000000 0.000000 0.000000
		CHANNELS 3 Xrotation Yrotation Zrotation
		JOINT RightUpLeg
		{
			OFFSET -18.735201 -5.666702 -4.541200
			CHANNELS 3 Xrotation Yrotation Zrotation
			JOINT RightLeg
			{
				OFFSET 0.018946 -31.938133 0.493100
				CHANNELS 3 Xrotation Yrotation Zrotation
				JOINT RightFoot
				{
					OFFSET -0.018946 -31.938126 -4.336299
					CHANNELS 3 Xrotation Yrotation Zrotation
					JOINT RightToeBase
					{
						OFFSET -0.943001 -26.722004 15.023500
						CHANNELS 3 Xrotation Yrotation Zrotation
						End Site
						{
							OFFSET 0 0 0
						}
					}
				}
			}
		}
	}
	JOINT Hips_virtual
	{
		OFFSET 0.000000 0.000000 0.000000
		CHANNELS 3 Xrotation Yrotation Zrotation
		JOINT Hips
		{
			OFFSET -0.000000 -0.000000 -0.000000
			CHANNELS 3 Xrotation Yrotation Zrotation
			JOINT Spine
			{
				OFFSET 0.000000 10.199997 -0.299500
				CHANNELS 3 Xrotation Yrotation Zrotation
				JOINT Spine1
				{
					OFFSET 0.000000 11.900002 -1.516600
					CHANNELS 3 Xrotation Yrotation Zrotation
					JOINT Spine2
					{
						OFFSET 0.000000 13.600006 -2.842500
						CHANNELS 3 Xrotation Yrotation Zrotation
						JOINT Neck_virtual
						{
							OFFSET 0.000000 0.000000 0.000000
							CHANNELS 3 Xrotation Yrotation Zrotation
							JOINT Neck
							{
								OFFSET 0.000000 9.624100 -2.890100
								CHANNELS 3 Xrotation Yrotation Zrotation
								JOINT Head
								{
									OFFSET 0.000000 14.068802 -1.351900
									CHANNELS 3 Xrotation Yrotation Zrotation
									End Site
									{
										OFFSET 0 0 0
									}
								}
							}
						}
						JOINT LeftShoulder_virtual
						{
							OFFSET 0.000000 0.000000 0.000000
							CHANNELS 3 Xrotation Yrotation Zrotation
							JOINT LeftShoulder
							{
								OFFSET 15.263000 10.923401 -0.547700
								CHANNELS 3 Xrotation Yrotation Zrotation
								JOINT LeftArm
								{
									OFFSET 25.438599 -2.830597 -13.032500
									CHANNELS 3 Xrotation Yrotation Zrotation
									JOINT LeftForeArm
									{
										OFFSET 29.960503 0.000000 0.000000
										CHANNELS 3 Xrotation Yrotation Zrotation
										JOINT LeftHand
										{
											OFFSET 27.849251 0.000000 0.000000
											CHANNELS 3 Xrotation Yrotation Zrotation
											End Site
											{
												OFFSET 0 0 0
											}
										}
									}
								}
							}
						}
						JOINT RightShoulder_virtual
						{
							OFFSET 0.000000 0.000000 0.000000
							CHANNELS 3 Xrotation Yrotation Zrotation
							JOINT RightShoulder
							{
								OFFSET -15.263000 10.923401 -0.547700
								CHANNELS 3 Xrotation Yrotation Zrotation
								JOINT RightArm
								{
									OFFSET -25.438599 -2.830597 -13.032500
									CHANNELS 3 Xrotation Yrotation Zrotation
									JOINT RightForeArm
									{
										OFFSET -29.960503 0.000000 0.000000
										CHANNELS 3 Xrotation Yrotation Zrotation
										JOINT RightHand
										{
											OFFSET -27.849251 0.000000 0.000000
											CHANNELS 3 Xrotation Yrotation Zrotation
											End Site
											{
												OFFSET 0 0 0
											}
										}
									}
								}
							}
						}
					}
				}
			}
		}
	}
}
MOTION
Frames: 11
Frame Time: 0.03333333
4.223865 89.529358 118.054939 0.000000 0.000000 0.000000 -3.421479 -12.499563 -3.634535 -48.220330 7.115807 15.021813 47.046565 -7.030373 4.318104 -4.113194 -9.654951 -3.382794 0.000000 0.000000 0.000000 6.147846 13.072559 8.808684 -19.185458 -3.369459 -3.041622 38.024811 1.666722 -4.166180 -16.260992 -0.400153 6.453147 0.000000 0.000000 0.000000 9.917492 9.295647 -0.541052 -12.177765 -13.199121 -7.042264 28.911993 7.634482 2.665764 16.016496 3.962474 1.082268 0.000000 0.000000 0.000000 9.807545 5.146338 -4.149771 0.662001 1.280184 -1.797481 0.000000 0.000000 0.000000 18.845124 4.748431 -0.033420 2.110687 -7.107920 -7.211152 -18.468639 -1.351430 -61.754814 -12.817387 -62.823192 -13.597944 0.000000 0.000000 0.000000 20.690397 7.972402 -0.360213 2.559483 12.341125 11.619408 -37.514377 16.418472 38.437456 -13.686605 76.734942 5.313509 0.000000 0.000000 0.000000 
3.885560 89.616379 117.206619 0.000000 0.000000 0.000000 -3.636894 -12.068977 -3.546443 -48.386293 7.115813 15.090226 46.701507 -6.379078 4.018469 -4.392084 -8.815001 -3.382596 0.000000 0.000000 0.000000 5.908555 12.936286 8.855247 -19.525597 -3.391715 -3.033436 37.971426 1.818728 -4.100354 -16.177228 -0.275096 6.608966 0.000000 0.000000 0.000000 9.390590 8.840066 -0.600540 -12.580624 -12.433566 -7.849108 28.412801 7.470407 2.701103 15.601832 3.876147 1.136054 0.000000 0.000000 0.000000 9.429196 5.020372 -4.145456 0.518701 1.240207 -1.816699 0.000000 0.000000 0.000000 18.472624 4.682798 -0.025281 2.159283 -6.771164 -7.261616 -18.514918 -0.625432 -61.825377 -12.903956 -62.097566 -13.657799 0.000000 0.000000 0.000000 20.282312 7.726013 -0.333847 2.639399 11.804292 11.514120 -38.262481 16.479168 37.621853 -13.825090 77.172183 4.976409 0.000000 0.000000 0.000000 
3.544993 89.693108 116.333954 0.000000 0.000000 0.000000 -3.818145 -11.617593 -3.453925 -48.514280 7.127544 15.159992 46.451536 -5.665790 3.674119 -4.598400 -7.897084 -3.412879 0.000000 0.000000 0.000000 5.660935 12.836948 8.933317 -19.875704 -3.411068 -2.991606 37.967136 1.917373 -4.068550 -16.053537 -0.175491 6.684269 0.000000 0.000000 0.000000 8.896449 8.384011 -0.650505 -12.911272 -11.678064 -8.580280 27.909941 7.266675 2.746904 15.195187 3.767143 1.190138 0.000000 0.000000 0.000000 9.037069 4.861554 -4.117190 0.365666 1.179040 -1.821250 0.000000 0.000000 0.000000 18.092988 4.594816 -0.007603 2.195925 -6.505100 -7.278174 -18.475044 0.103956 -61.916853 -12.941708 -61.340256 -13.682830 0.000000 0.000000 0.000000 19.875444 7.449591 -0.305143 2.720861 11.169944 11.413165 -39.135529 16.651031 36.727751 -14.063508 77.791121 4.677634 0.000000 0.000000 0.000000 
3.206772 89.756874 115.443077 0.000000 0.000000 0.000000 -3.954479 -11.183932 -3.354050 -48.592165 7.143366 15.232193 46.352242 -4.928092 3.290061 -4.696206 -6.942804 -3.495390 0.000000 0.000000 0.000000 5.409195 12.766259 9.040216 -20.230873 -3.429819 -2.919484 38.004347 1.961435 -4.070472 -15.897417 -0.103543 6.676959 0.000000 0.000000 0.000000 8.436575 7.933303 -0.691939 -13.167211 -10.919401 -9.240366 27.408649 7.020879 2.801830 14.798353 3.634371 1.244842 0.000000 0.000000 0.000000 8.633727 4.668181 -4.061639 0.204845 1.096808 -1.810137 0.000000 0.000000 0.000000 17.704661 4.482966 0.021019 2.219521 -6.308773 -7.259693 -18.346008 0.822641 -62.022339 -12.922621 -60.550570 -13.668949 0.000000 0.000000 0.000000 19.466326 7.139952 -0.273152 2.802012 10.431768 11.312018 -40.124185 16.930939 35.781264 -14.435111 78.607049 4.457125 0.000000 0.000000 0.000000 
2.874910 89.805824 114.538719 0.000000 0.000000 0.000000 -4.034072 -10.817777 -3.244465 -48.606184 7.153404 15.306985 46.456276 -4.206948 2.875798 -4.651025 -5.999321 -3.644878 0.000000 0.000000 0.000000 5.156821 12.716576 9.170921 -20.587396 -3.449453 -2.822949 38.075887 1.953185 -4.103597 -15.716762 -0.059771 6.590771 0.000000 0.000000 0.000000 8.012327 7.492577 -0.725517 -13.341864 -10.151263 -9.832695 26.913377 6.732680 2.863728 14.412613 3.477950 1.300150 0.000000 0.000000 0.000000 8.222315 4.441139 -3.978347 0.038619 0.995076 -1.783738 0.000000 0.000000 0.000000 17.305589 4.347642 0.061386 2.228971 -6.176583 -7.206333 -18.131552 1.517365 -62.138001 -12.845533 -59.731691 -13.618313 0.000000 0.000000 0.000000 19.050086 6.796064 -0.237256 2.878729 9.590087 11.206560 -41.223334 17.312491 34.813628 -15.004602 79.633176 4.386788 0.000000 0.000000 0.000000 
2.552793 89.839455 113.624985 0.000000 0.000000 0.000000 -4.046745 -10.571383 -3.123923 -48.544402 7.147230 15.383637 46.804506 -3.538882 2.446343 -4.435430 -5.111848 -3.862180 0.000000 0.000000 0.000000 4.906362 12.680479 9.318647 -20.942933 -3.470805 -2.709744 38.175051 1.898175 -4.163568 -15.519243 -0.042801 6.434700 0.000000 0.000000 0.000000 7.624942 7.065595 -0.751581 -13.423701 -9.372840 -10.358160 26.427593 6.403871 2.929930 14.038761 3.299179 1.355782 0.000000 0.000000 0.000000 7.806198 4.183800 -3.869414 -0.130407 0.876711 -1.743627 0.000000 0.000000 0.000000 16.893657 4.190915 0.113741 2.223338 -6.099583 -7.119262 -17.840418 2.175034 -62.263014 -12.714052 -58.891032 -13.537592 0.000000 0.000000 0.000000 18.621131 6.419288 -0.197309 2.945234 8.652689 11.092918 -42.430375 17.787952 33.859816 -15.894733 80.881304 4.597081 0.000000 0.000000 0.000000 
2.243133 89.858902 112.706482 0.000000 0.000000 0.000000 -3.986421 -10.487969 -2.992307 -48.399813 7.116050 15.460842 47.417639 -2.947957 2.022378 -4.034384 -4.315482 -4.129226 0.000000 0.000000 0.000000 4.659192 12.650311 9.475764 -21.296690 -3.494353 -2.588447 38.295795 1.804771 -4.244545 -15.311421 -0.049355 6.222221 0.000000 0.000000 0.000000 7.275112 6.655560 -0.770310 -13.397946 -8.586432 -10.815511 25.953401 6.038176 2.997616 13.676979 3.100367 1.411306 0.000000 0.000000 0.000000 7.388650 3.901621 -3.738906 -0.299594 0.745610 -1.692273 0.000000 0.000000 0.000000 16.467040 4.016014 0.177821 2.201976 -6.067306 -7.000555 -17.484772 2.782400 -62.398566 -12.534673 -58.040011 -13.436138 0.000000 0.000000 0.000000 18.174196 6.013238 -0.153716 2.995297 7.634389 10.967410 -43.742099 18.349505 32.955837 -17.354606 82.361283 5.345351 0.000000 0.000000 0.000000 
1.947956 89.866943 111.789223 0.000000 0.000000 0.000000 -3.851878 -10.590247 -2.850243 -48.171019 7.055099 15.537103 48.291025 -2.440048 1.628662 -3.448591 -3.628453 -4.408582 0.000000 0.000000 0.000000 4.415430 12.617791 9.634813 -21.649306 -3.520523 -2.467322 38.432938 1.683414 -4.339562 -15.098063 -0.074527 5.970180 0.000000 0.000000 0.000000 6.962327 6.265389 -0.782079 -13.250255 -7.794569 -11.203250 25.491268 5.640873 3.064105 13.326722 2.884584 1.466182 0.000000 0.000000 0.000000 6.972727 3.601496 -3.592128 -0.466404 0.606313 -1.632680 0.000000 0.000000 0.000000 16.024701 3.826657 0.252888 2.164722 -6.069724 -6.853243 -17.079277 3.326336 -62.546665 -12.315419 -57.193221 -13.324294 0.000000 0.000000 0.000000 17.705572 5.583299 -0.107441 3.023684 6.555368 10.826513 -45.150402 18.988973 32.134906 -19.977318 84.076391 7.233544 0.000000 0.000000 0.000000 
1.668814 89.867615 110.880852 0.000000 0.000000 0.000000 -3.645467 -10.872264 -2.698689 -47.860362 6.965691 15.611027 49.393981 -2.001683 1.290422 -2.694743 -3.049068 -4.648961 0.000000 0.000000 0.000000 4.174270 12.573913 9.789313 -22.002286 -3.549954 -2.353380 38.582072 1.545673 -4.441027 -14.881865 -0.112284 5.697293 0.000000 0.000000 0.000000 6.684378 5.898051 -0.787892 -12.970970 -6.997058 -11.522494 25.040076 5.218448 3.126946 12.986734 2.655451 1.519741 0.000000 0.000000 0.000000 6.561299 3.290893 -3.434852 -0.628448 0.463500 -1.568020 0.000000 0.000000 0.000000 15.566826 3.626437 0.337766 2.112162 -6.098788 -6.681404 -16.640439 3.794666 -62.708643 -12.064921 -56.367253 -13.211977 0.000000 0.000000 0.000000 17.214022 5.135950 -0.059913 3.027358 5.438936 10.666936 -46.637980 19.696027 31.423061 -25.644280 86.007812 12.152570 0.000000 0.000000 0.000000 
1.407283 89.865585 109.990288 0.000000 0.000000 0.000000 -3.370661 -11.297887 -2.538918 -47.470768 6.856114 15.681288 50.673983 -1.604610 1.028507 -1.802857 -2.557863 -4.795959 0.000000 0.000000 0.000000 3.934801 12.509316 9.934152 -22.356840 -3.583594 -2.251878 38.739303 1.403162 -4.541414 -14.663733 -0.156114 5.422266 0.000000 0.000000 0.000000 6.437269 5.557070 -0.789711 -12.558342 -6.188416 -11.779616 24.597408 4.778383 3.183847 12.655155 2.417030 1.571141 0.000000 0.000000 0.000000 6.157310 2.976998 -3.272640 -0.783442 0.321500 -1.501305 0.000000 0.000000 0.000000 15.095206 3.418406 0.430894 2.045863 -6.149207 -6.490126 -16.185829 4.177371 -62.883892 -11.791654 -55.578817 -13.107395 0.000000 0.000000 0.000000 16.701080 4.678159 -0.012838 3.005991 4.309415 10.485895 -48.176111 20.455430 30.835490 -44.640781 88.030292 30.397846 0.000000 0.000000 0.000000 
1.165656 89.865280 109.126945 0.000000 0.000000 0.000000 -3.029902 -11.807427 -2.372974 -47.003033 6.740752 15.746248 52.064551 -1.215311 0.855074 -0.811957 -2.125027 -4.805040 0.000000 0.000000 0.000000 3.697146 12.415091 10.065543 -22.712430 -3.622627 -2.166291 38.900714 1.266470 -4.634061 -14.443437 -0.199691 5.161775 0.000000 0.000000 0.000000 6.215649 5.246801 -0.790466 -12.019753 -5.356726 -11.987452 24.159871 4.329040 3.232549 12.329667 2.173791 1.619363 0.000000 0.000000 0.000000 5.764117 2.666014 -3.110323 -0.929130 0.183898 -1.435141 0.000000 0.000000 0.000000 14.613232 3.204919 0.530453 1.968430 -6.218308 -6.285155 -15.732919 4.467883 -63.068963 -11.503269 -54.842580 -13.016064 0.000000 0.000000 0.000000 16.170715 4.216958 0.032076 2.961701 3.190720 10.281666 -49.726140 21.244713 30.374982 -135.009016 88.601426 120.021915 0.000000 0.000000 0.000000 
